<svg xmlns="http://www.w3.org/2000/svg" viewBox="0 0 1600 825">
  <path id="hero__background__mask" fill="black" stroke="none" stroke-width="1"
        d="M 0.00,0.00
           C 0.00,0.00 1600.00,0.00 1600.00,0.00
             1600.00,0.00 1600.00,300.00 1600.00,300.00
             1600.00,302.38 1600.20,305.71 1598.98,307.79
             1597.46,310.37 1593.58,311.91 1591.00,313.31
             1591.00,313.31 1566.00,324.37 1566.00,324.37
             1566.00,324.37 1543.00,339.76 1543.00,339.76
             1543.00,339.76 1529.00,352.47 1529.00,352.47
             1529.00,352.47 1516.44,360.39 1516.44,360.39
             1509.54,366.80 1507.97,374.02 1497.00,378.39
             1490.18,381.11 1485.93,379.78 1479.00,380.00
             1479.00,380.00 1482.54,346.00 1482.54,346.00
             1482.22,343.31 1481.13,341.87 1481.08,338.00
             1481.08,338.00 1482.61,318.00 1482.61,318.00
             1482.72,312.66 1477.38,304.64 1472.00,303.47
             1469.19,302.86 1466.64,304.60 1464.00,305.29
             1458.86,306.64 1456.49,306.31 1451.00,308.91
             1445.42,311.55 1443.61,314.47 1437.00,317.00
             1437.00,317.00 1436.00,307.00 1436.00,307.00
             1436.00,307.00 1415.00,305.32 1415.00,305.32
             1410.33,304.98 1400.91,307.50 1396.00,308.58
             1379.23,312.26 1380.37,310.90 1364.00,318.14
             1359.45,320.15 1357.20,320.86 1353.00,323.93
             1345.83,329.15 1335.52,341.12 1331.40,349.00
             1327.26,356.91 1329.37,363.23 1320.00,364.00
             1320.00,360.68 1319.68,354.03 1320.87,351.17
             1322.30,347.71 1325.72,346.05 1327.26,342.00
             1330.43,333.69 1325.38,326.97 1317.00,326.00
             1318.26,318.30 1313.25,318.04 1311.17,321.24
             1308.62,325.19 1309.20,334.51 1310.00,339.00
             1305.45,343.87 1308.81,343.68 1309.23,349.00
             1309.23,349.00 1309.23,360.00 1309.23,360.00
             1309.50,362.61 1311.20,367.01 1310.89,368.99
             1310.35,372.35 1305.44,375.65 1303.02,378.04
             1295.62,385.33 1297.21,387.46 1291.90,392.91
             1283.69,401.33 1280.96,398.81 1272.00,401.38
             1272.00,401.38 1263.00,405.29 1263.00,405.29
             1260.40,406.29 1257.36,407.02 1255.11,408.70
             1247.72,414.20 1249.33,427.49 1239.98,434.01
             1235.00,437.48 1233.20,436.00 1227.00,439.70
             1219.32,444.28 1213.63,450.98 1205.00,454.11
             1201.67,455.33 1198.88,454.71 1196.00,455.41
             1192.79,456.20 1190.91,458.03 1188.00,458.26
             1185.29,458.48 1183.45,457.08 1180.00,457.54
             1180.00,457.54 1174.00,459.04 1174.00,459.04
             1174.00,459.04 1158.00,461.92 1158.00,461.92
             1144.84,464.13 1143.18,461.73 1131.00,457.67
             1128.68,456.89 1122.33,455.20 1121.03,453.30
             1119.55,451.13 1121.51,445.46 1122.13,443.00
             1122.13,443.00 1129.00,415.00 1129.00,415.00
             1129.00,415.00 1122.00,412.17 1122.00,412.17
             1122.00,412.17 1092.00,413.00 1092.00,413.00
             1091.90,411.32 1091.90,409.64 1091.26,408.04
             1090.27,405.57 1087.58,402.98 1085.01,402.23
             1081.30,401.15 1080.53,404.07 1078.36,406.16
             1078.36,406.16 1074.65,409.30 1074.65,409.30
             1070.25,413.78 1070.92,415.44 1064.00,416.00
             1064.00,416.00 1065.00,402.00 1065.00,402.00
             1058.42,400.94 1058.97,398.91 1054.00,395.72
             1054.00,395.72 1042.00,390.58 1042.00,390.58
             1039.19,389.58 1035.84,389.00 1034.64,385.81
             1033.53,382.88 1035.86,368.83 1036.21,365.00
             1036.48,362.03 1034.86,355.03 1034.00,352.00
             1034.00,352.00 1039.00,354.00 1039.00,354.00
             1039.38,349.31 1037.53,343.31 1034.28,339.78
             1032.96,338.34 1030.74,336.19 1028.73,337.74
             1027.27,338.87 1027.23,341.64 1026.02,343.41
             1024.31,345.93 1021.18,346.92 1020.35,351.00
             1019.31,356.11 1023.20,359.86 1024.37,363.00
             1025.65,366.43 1025.04,371.36 1025.00,375.00
             1024.97,377.97 1025.41,383.31 1023.98,385.82
             1021.25,390.62 1015.15,391.97 1010.75,394.38
             1007.50,396.17 1003.49,401.56 1002.14,405.00
             999.80,410.98 1002.46,412.64 992.74,431.00
             988.77,438.49 983.88,440.80 981.62,448.00
             979.53,454.67 978.75,470.81 974.57,475.82
             973.11,477.56 970.96,479.00 969.00,480.12
             960.10,485.22 960.17,480.54 952.00,483.09
             940.88,486.57 937.84,490.89 934.00,492.07
             930.27,493.22 924.17,490.62 920.00,490.17
             909.28,489.02 898.24,492.73 889.00,486.00
             883.98,498.66 888.42,501.27 889.00,513.85
             889.00,513.85 881.00,513.85 881.00,513.85
             881.00,513.85 862.17,519.80 862.17,519.80
             862.17,519.80 841.00,543.00 841.00,543.00
             829.63,531.60 827.10,525.85 817.99,514.09
             817.99,514.09 809.87,504.01 809.87,504.01
             809.87,504.01 803.74,497.72 803.74,497.72
             802.07,495.36 802.20,493.48 801.04,491.00
             799.43,487.60 792.84,477.00 789.87,475.09
             789.87,475.09 775.00,469.74 775.00,469.74
             775.00,469.74 744.00,454.85 744.00,454.85
             739.39,453.72 737.23,454.24 733.00,453.83
             733.00,453.83 715.00,452.03 715.00,452.03
             715.00,452.03 702.00,453.00 702.00,453.00
             702.00,453.00 687.00,453.00 687.00,453.00
             687.00,453.00 673.00,454.00 673.00,454.00
             661.99,454.13 650.92,454.31 640.00,452.70
             640.00,452.70 623.00,448.80 623.00,448.80
             613.38,446.85 603.78,445.76 594.00,445.09
             587.37,444.64 574.62,446.12 568.00,447.45
             568.00,447.45 558.00,449.69 558.00,449.69
             558.00,449.69 543.00,449.00 543.00,449.00
             533.24,449.12 532.78,451.73 527.00,452.55
             521.89,453.63 517.87,451.86 514.00,452.55
             509.03,453.02 507.88,455.62 498.00,456.54
             489.46,457.33 482.13,451.55 475.00,452.46
             475.00,452.46 459.00,457.19 459.00,457.19
             451.41,458.70 434.76,458.72 427.00,457.71
             416.75,456.37 400.86,447.84 391.00,443.31
             391.00,443.31 344.00,423.28 344.00,423.28
             344.00,423.28 311.00,412.35 311.00,412.35
             311.00,412.35 301.00,405.76 301.00,405.76
             301.00,405.76 294.39,403.02 294.39,403.02
             292.41,401.64 291.40,399.15 289.61,397.21
             289.61,397.21 283.63,391.79 283.63,391.79
             280.97,388.62 280.41,385.15 275.91,381.96
             275.91,381.96 260.00,374.51 260.00,374.51
             260.00,374.51 249.00,368.55 249.00,368.55
             249.00,368.55 233.00,363.13 233.00,363.13
             227.34,360.65 217.53,353.71 212.00,350.00
             212.00,350.00 158.00,310.72 158.00,310.72
             158.00,310.72 135.00,295.45 135.00,295.45
             135.00,295.45 123.17,288.65 123.17,288.65
             119.38,286.14 116.31,282.14 110.00,278.48
             104.62,275.36 103.57,276.83 97.00,273.74
             85.17,268.16 73.52,261.71 61.00,257.71
             53.43,255.29 45.73,259.62 38.00,259.96
             26.20,260.48 25.05,258.20 18.00,257.80
             18.00,257.80 10.00,257.80 10.00,257.80
             10.00,257.80 0.00,257.00 0.00,257.00
             0.00,257.00 0.00,0.00 0.00,0.00 Z" />
</svg>
