<svg xmlns="http://www.w3.org/2000/svg" viewBox="0 0 256 512">
  <path fill="rgb(176, 180, 190)" stroke="none" stroke-width="1"
        d="M 40.00,64.52
           C 64.34,60.66 72.29,73.29 88.00,89.00
             88.00,89.00 132.00,133.00 132.00,133.00
             132.00,133.00 211.00,212.00 211.00,212.00
             219.61,220.61 235.96,234.50 239.07,246.00
             240.15,249.96 240.05,253.94 240.00,258.00
             239.83,272.04 232.29,278.71 223.00,288.00
             223.00,288.00 202.00,309.00 202.00,309.00
             202.00,309.00 98.00,413.00 98.00,413.00
             98.00,413.00 81.00,430.00 81.00,430.00
             68.71,442.29 64.13,448.21 46.00,448.00
             31.53,447.82 19.56,438.27 16.52,424.00
             15.87,420.97 15.97,417.13 16.00,414.00
             16.17,399.96 23.71,393.29 33.00,384.00
             33.00,384.00 48.00,369.00 48.00,369.00
             48.00,369.00 129.00,288.00 129.00,288.00
             129.00,288.00 150.00,267.00 150.00,267.00
             151.94,265.06 158.19,259.31 158.80,257.00
             159.73,253.47 153.32,248.32 151.00,246.00
             151.00,246.00 125.00,220.00 125.00,220.00
             125.00,220.00 56.00,151.00 56.00,151.00
             48.83,143.83 25.69,121.57 21.22,115.00
             16.36,107.85 15.90,102.30 16.00,94.00
             16.19,78.73 25.57,68.40 40.00,64.52 Z" />
</svg>
