<svg xmlns="http://www.w3.org/2000/svg" viewBox="0 0 256 512">
  <path id="carousel__left"
        fill="white" stroke="none" stroke-width="1"
        d="M 200.00,64.52
           C 223.07,60.86 240.11,72.81 240.00,97.00
             239.92,115.69 224.15,126.85 212.00,139.00
             212.00,139.00 132.00,219.00 132.00,219.00
             132.00,219.00 105.00,246.00 105.00,246.00
             102.68,248.32 96.27,253.47 97.20,257.00
             97.81,259.31 104.06,265.06 106.00,267.00
             106.00,267.00 128.00,289.00 128.00,289.00
             128.00,289.00 210.00,371.00 210.00,371.00
             218.75,379.75 235.94,394.42 239.07,406.00
             240.15,409.96 240.04,413.93 240.00,418.00
             239.83,432.54 230.35,444.42 216.00,447.48
             212.97,448.13 209.13,448.03 206.00,448.00
             189.99,447.80 181.44,436.44 171.00,426.00
             171.00,426.00 114.00,369.00 114.00,369.00
             114.00,369.00 43.00,298.00 43.00,298.00
             28.41,283.41 15.74,276.04 16.00,254.00
             16.17,239.96 23.71,233.29 33.00,224.00
             33.00,224.00 54.00,203.00 54.00,203.00
             54.00,203.00 152.00,105.00 152.00,105.00
             152.00,105.00 175.00,82.00 175.00,82.00
             183.57,73.43 187.92,67.76 200.00,64.52 Z" />
</svg>
